Coordinates
version=1
nRows=10
nColumns=40
inDegrees=yes

Units are S.I. units (second, meters, Newtons, ...)
Angles are in degrees.

endheader
time	pelvis_tilt	pelvis_list	pelvis_rotation	pelvis_tx	pelvis_ty	pelvis_tz	hip_flexion_r	hip_adduction_r	hip_rotation_r	knee_angle_r	knee_angle_r_beta	ankle_angle_r	subtalar_angle_r	mtp_angle_r	hip_flexion_l	hip_adduction_l	hip_rotation_l	knee_angle_l	knee_angle_l_beta	ankle_angle_l	subtalar_angle_l	mtp_angle_l	lumbar_extension	lumbar_bending	lumbar_rotation	arm_flex_r	arm_add_r	arm_rot_r	elbow_flex_r	pro_sup_r	wrist_flex_r	wrist_dev_r	arm_flex_l	arm_add_l	arm_rot_l	elbow_flex_l	pro_sup_l	wrist_flex_l	wrist_dev_l
      9.26000000	     -4.21232464	     -5.14431210	     -1.32729598	      0.95508017	      0.92690939	      0.54625675	     14.87792982	      5.33909346	    -13.74335261	     20.12283038	     20.12283038	     11.37271977	     -2.48325499	     -1.83983874	     18.71458710	    -12.45130781	      0.00253535	     62.26036218	     62.26036218	     10.55083281	    -17.75651092	      9.69164886	     -9.86678568	      7.14002513	     -0.57780785	     -2.10555769	    -19.58773724	    -19.35525330	     36.90614907	     46.00730553	      0.00000000	      0.00000000	     20.42868923	    -12.06412531	     -3.88721504	     43.46489450	     46.28068195	      0.00000000	      0.00000000
      9.28100000	     -3.71699770	     -5.26651667	     -0.99827992	      0.95453945	      0.92667094	      0.54868392	     14.08658397	      5.62066890	    -13.68045255	     20.43391232	     20.43391232	     12.03180827	     -2.87930011	     -2.03408938	     20.21011700	    -12.72083953	      0.22971186	     62.97216594	     62.97216594	     10.87600789	    -18.55885903	      9.80652098	    -10.21633966	      6.96505017	      0.32500343	     -0.57232750	    -19.65359148	    -19.31997046	     37.35986444	     45.99834572	      0.00000000	      0.00000000	     17.81291643	    -10.70560588	     -3.44877604	     42.10950843	     46.19731359	      0.00000000	      0.00000000
      9.30200000	     -3.44409832	     -5.44414448	     -0.53555315	      0.95353566	      0.92581015	      0.55112101	     13.71451980	      6.08864898	    -13.07991212	     20.96291436	     20.96291436	     12.66066141	     -4.61494858	     -1.63801841	     22.32000177	    -12.86142756	      0.86287503	     63.91960510	     63.91960510	     12.99314432	    -18.88508701	     14.84122861	    -10.13016612	      6.84806076	     -0.11379999	      3.21672690	    -19.47214018	    -18.80100059	     35.24063917	     46.08376712	      0.00000000	      0.00000000	     15.97816648	    -10.30740671	     -1.45965977	     36.31171035	     45.97626758	      0.00000000	      0.00000000
      9.32300000	     -3.00919883	     -5.61531071	     -0.09385011	      0.95265445	      0.92482379	      0.55353679	     13.21301831	      6.45671485	    -12.86631566	     21.64126443	     21.64126443	     13.36229548	     -5.65157489	     -1.69882888	     23.98931388	    -13.16754853	      1.14140801	     64.12458850	     64.12458850	     13.79330018	    -19.19600930	     15.83424782	    -10.39124197	      6.71139589	     -0.22397126	      5.76184374	    -19.15797782	    -18.76058756	     36.06571049	     46.06616560	      0.00000000	      0.00000000	     13.12968864	     -9.64694827	     -0.80307777	     33.92680393	     45.86278385	      0.00000000	      0.00000000
      9.34400000	     -2.54823649	     -5.76452759	      0.33925586	      0.95162558	      0.92361297	      0.55583483	     12.76049367	      6.83759775	    -12.48304994	     22.41861886	     22.41861886	     14.06145021	     -6.99104780	     -1.59608081	     25.56387408	    -13.40913062	      1.39129223	     63.93048500	     63.93048500	     14.92130799	    -19.35286880	     17.63596764	    -10.69409161	      6.52708626	     -0.25443186	      8.48750366	    -18.84444258	    -18.55350154	     36.46112243	     46.05756091	      0.00000000	      0.00000000	     10.57909970	     -8.95875250	      0.03024170	     31.08433501	     45.72664258	      0.00000000	      0.00000000
      9.36500000	     -2.10147953	     -5.89188535	      0.80075111	      0.95039832	      0.92221966	      0.55781479	     12.41623724	      7.14235608	    -12.24694769	     23.35454392	     23.35454392	     14.96648695	     -8.04079068	     -1.08909651	     27.07050945	    -13.48526574	      1.73583023	     63.30323196	     63.30323196	     16.48740527	    -19.44265434	     20.95633615	    -10.99684825	      6.31052287	      0.11545896	     11.32918841	    -18.72609850	    -17.91826231	     35.65462573	     46.07537524	      0.00000000	      0.00000000	      8.65611511	     -8.23038577	      1.61494022	     27.64894325	     45.51280813	      0.00000000	      0.00000000
      9.38600000	     -1.67625621	     -5.96639703	      1.26824252	      0.94894361	      0.92055873	      0.55956811	     12.18860800	      7.36772134	    -12.06239967	     24.40206221	     24.40206221	     15.69734019	     -9.18447733	     -1.19095248	     28.32893773	    -13.53090077	      1.90932878	     61.98478427	     61.98478427	     16.95614285	    -19.49839046	     21.21454926	    -11.37785762	      6.05927631	      0.19883977	     13.79354819	    -18.31326309	    -17.82334042	     37.06506905	     46.02956127	      0.00000000	      0.00000000	      6.10929214	     -7.70424975	      2.01318153	     26.06961806	     45.41523344	      0.00000000	      0.00000000
      9.40700000	     -1.29139080	     -6.00833832	      1.73176114	      0.94727870	      0.91882856	      0.56095458	     12.00085721	      7.53143709	    -11.93085379	     25.40432082	     25.40432082	     16.36037897	    -10.21546187	     -1.24897857	     29.44937318	    -13.41936721	      2.13487970	     60.22775172	     60.22775172	     17.33325247	    -19.53236741	     21.49357639	    -11.74799574	      5.78577411	      0.51226500	     16.19386239	    -18.04028710	    -17.67574660	     38.47742572	     45.98078953	      0.00000000	      0.00000000	      3.80553040	     -7.18057979	      2.34611645	     24.73594668	     45.32524190	      0.00000000	      0.00000000
      9.42800000	     -1.02882719	     -5.96061273	      2.26176656	      0.94535827	      0.91707133	      0.56191686	     11.97564258	      7.58285510	    -11.79968887	     26.41782683	     26.41782683	     17.00130771	    -11.34090950	     -1.15485579	     30.49527071	    -13.04687355	      2.47448512	     58.01596794	     58.01596794	     17.47041165	    -19.52896132	     21.77789614	    -11.98943849	      5.43466961	      0.39547103	     18.77557511	    -17.45232693	    -17.37180714	     40.35199305	     45.90607186	      0.00000000	      0.00000000	      1.47566786	     -6.85183414	      2.71920196	     23.41184442	     45.22376129	      0.00000000	      0.00000000
      9.44900000	     -0.85086215	     -5.89548554	      2.79607512	      0.94325308	      0.91547646	      0.56246974	     11.94921702	      7.57366227	    -11.80652383	     27.23554271	     27.23554271	     17.60543037	    -12.18480067	     -0.97695285	     31.41405742	    -12.52889746	      2.90814786	     55.46523488	     55.46523488	     17.32318624	    -19.50924356	     21.84809513	    -12.18468605	      5.11078630	      0.40508606	     21.25953193	    -17.01014426	    -16.92254974	     42.48244809	     45.81496042	      0.00000000	      0.00000000	     -0.70833883	     -6.56153879	      3.05897295	     22.51011118	     45.12304114	      0.00000000	      0.00000000
